# xmcd
#
# Track frame offsets:
#	150
#	17394
#	34674
#	54841
#	71989
#	85711
#	103617
#	123684
#	141261
#	154679
#
# Disc length: 2313 seconds
#
# Revision: 1
# Processed by: cddbd v1.5.1PL2 Copyright (c) Steve Scherf et al.
# Submitted via: EasyCDDAExtractor 9.0.0.1
#
DISCID=7d09070a
DTITLE=Alan Jackson - High Mileage
DYEAR=1998
DGENRE=Country
TTITLE0=Right On The Money
TTITLE1=Gone Crazy
TTITLE2=Little Man
TTITLE3=What A Day Yesterday Was
TTITLE4=Hurtin' Comes Easy
TTITLE5=I'll Go On Loving You
TTITLE6=Another Good Reason
TTITLE7=A Woman's Love
TTITLE8=Dancin' All Around It
TTITLE9=Amarillo
EXTD=
EXTT0=
EXTT1=
EXTT2=
EXTT3=
EXTT4=
EXTT5=
EXTT6=
EXTT7=
EXTT8=
EXTT9=
PLAYORDER=
